<svg xmlns="http://www.w3.org/2000/svg" viewBox="0 0 572.55 171.31"><defs><style>.cls-1,.cls-4{fill:#fff;}.cls-2{fill:#7bafc4;}.cls-3{fill:#e67e2d;}.cls-4{fill-rule:evenodd;}</style></defs><g id="Layer_2" data-name="Layer 2"><g id="Layer_1-2" data-name="Layer 1"><path class="cls-1" d="M0,85.7C0,133,40.5,171.33,90.39,171.31L90.29,0C40.4,0,0,38.4,0,85.7Z"/><path class="cls-1" d="M180.5,85.6C180.47,38.3,140,0,90.11,0l.1,171.31C140.1,171.28,180.53,132.91,180.5,85.6Z"/><path class="cls-2" d="M3.81,85.7c0,45.31,38.78,82,86.58,82L90.29,3.61C42.5,3.64,3.78,40.39,3.81,85.7Z"/><path class="cls-3" d="M176.69,85.6c0-45.31-38.79-82-86.58-82l.1,164.08C138,167.67,176.72,130.91,176.69,85.6Z"/><path class="cls-1" d="M167.49,85.61l-1.74.17c-1.13.1-2.79.27-4.9.43s-4.69.38-7.63.55-6.27.42-9.89.58-7.56.4-11.71.53-8.53.33-13.06.43-9.22.2-14,.26-9.59.08-14.43.1-9.66,0-14.42-.08-9.44-.14-14-.24-8.91-.27-13.07-.42-8.08-.32-11.7-.51-6.95-.38-9.9-.57-5.51-.39-7.62-.55-3.78-.33-4.91-.42l-1.74-.17,1.74-.18c1.13-.09,2.79-.27,4.91-.43s4.68-.38,7.62-.55S33.37,84.12,37,84s7.56-.4,11.71-.53,8.53-.33,13.06-.43,9.22-.21,14-.26,9.6-.07,14.43-.09,9.66,0,14.42.08,9.44.14,14,.25,8.91.27,13.07.41,8.08.33,11.7.51,7,.38,9.9.57,5.51.39,7.62.55,3.78.32,4.91.42Z"/><path class="cls-1" d="M147.26,33.51l-1.09.77c-.73.5-1.77,1.25-3.13,2.15s-3.13,1.83-5.16,3l-.78.43-.81.37-1.71.78c-1.18.53-2.41,1.11-3.73,1.64l-4.15,1.51-1.09.4-.55.19-.63.18-2.27.65-4.73,1.3c-1.64.41-3.4.69-5.15,1.05a104.94,104.94,0,0,1-10.87,1.54c-1.85.24-3.72.3-5.6.37l-5.76.2-5.56-.19c-1.84-.07-3.66-.11-5.56-.36A99.71,99.71,0,0,1,68,47.92c-1.74-.36-3.46-.63-5.12-1l-4.83-1.32-2.3-.66-.29-.08-.14,0-.13,0-.07,0-.54-.19-1.07-.38-4.08-1.49c-1.31-.53-2.57-1.12-3.75-1.64L44,40.24l-.82-.37-.77-.42c-2-1.12-3.77-2.06-5.16-3s-2.42-1.66-3.14-2.15L33,33.57l1.26.48c.81.32,2,.76,3.51,1.38.73.33,1.61.55,2.53.87s1.92.64,3,1,2.21.63,3.4,1,2.43.72,3.77,1l4.23,1,1.11.26.56.14.5.08,2.29.39,4.73.85c1.62.24,3.29.42,5,.64l2.56.32,1.29.17,1.29.08,5.24.39c1.74.2,3.6.17,5.45.23l5.55.14,5.34-.15c1.81-.06,3.62,0,5.4-.22s3.55-.28,5.3-.4l1.3-.09c.43,0,.86-.11,1.28-.16l2.53-.32c1.68-.22,3.31-.39,5-.63l4.83-.88,2.32-.41.5-.08.55-.13,1.08-.26,4.17-1c1.33-.32,2.58-.73,3.79-1s2.38-.61,3.42-1l3-1c.91-.32,1.79-.54,2.53-.88,1.51-.63,2.71-1.07,3.52-1.4Z"/><path class="cls-1" d="M90.2,163,90,161.25c-.09-1.14-.27-2.8-.42-4.91s-.38-4.68-.56-7.63-.41-6.27-.58-9.89-.39-7.55-.52-11.71-.33-8.53-.43-13.06-.21-9.21-.27-14-.08-9.59-.1-14.43,0-9.66.09-14.42.13-9.44.24-14,.26-8.91.41-13.07.32-8.08.51-11.7.38-7,.57-9.89.39-5.52.55-7.63.33-3.78.42-4.91.18-1.74.18-1.74l.17,1.74c.1,1.13.27,2.79.43,4.91s.38,4.68.55,7.62.42,6.27.59,9.9.39,7.55.52,11.7.33,8.54.43,13.07.21,9.21.26,14,.08,9.59.1,14.42,0,9.67-.09,14.42-.13,9.45-.25,14-.26,8.91-.41,13.06-.33,8.08-.51,11.71-.38,6.94-.57,9.89-.38,5.51-.54,7.63-.33,3.77-.42,4.91S90.2,163,90.2,163Z"/><path class="cls-1" d="M90.12,8.32l-2.73.25-1.48.12-1.77.25-2,.29c-.73.1-1.5.27-2.31.41a78,78,0,0,0-11.45,3A78.91,78.91,0,0,0,54.49,19,81.68,81.68,0,0,0,40.13,29.66a79.61,79.61,0,0,0-6.65,7.12l-.82,1-.75,1c-.5.67-1,1.3-1.51,2-1,1.38-2,2.77-2.86,4.24a76.32,76.32,0,0,0-11,29.82,82.7,82.7,0,0,0-.74,10.9l.05,2.78c0,1,.09,1.83.15,2.73.08,1.77.34,3.6.55,5.4a78.29,78.29,0,0,0,2.32,10.59,76.93,76.93,0,0,0,8.68,19.21c.9,1.47,1.89,2.86,2.87,4.24.49.68,1,1.33,1.53,2s1,1.32,1.56,2,1.07,1.32,1.57,1.86l1.7,1.86c.57.64,1.14,1.18,1.7,1.73l1.68,1.66a82.09,82.09,0,0,0,14.37,10.64,79.37,79.37,0,0,0,25.31,9.33c.81.15,1.58.31,2.3.42l2,.28,1.77.24,1.48.13,2.72.24-2.73.11-1.49,0-1.8,0L82.09,163c-.75,0-1.53-.12-2.37-.18a68.68,68.68,0,0,1-12-2,72.83,72.83,0,0,1-14.83-5.48,77.19,77.19,0,0,1-15.73-10.34l-1.91-1.72c-.65-.57-1.31-1.16-1.88-1.75l-1.79-1.78c-.69-.68-1.21-1.3-1.83-2a72.83,72.83,0,0,1-6.65-8.54,77.67,77.67,0,0,1-5.58-9.72,71.16,71.16,0,0,1-4.22-10.71,83.92,83.92,0,0,1-2.61-11.41c-.25-1.95-.54-3.87-.66-5.89-.07-1-.17-2-.18-2.95L9.82,85.7a90.77,90.77,0,0,1,.91-11.77,82.76,82.76,0,0,1,2.6-11.41,72.17,72.17,0,0,1,4.2-10.71,77.67,77.67,0,0,1,5.58-9.72c1-1.55,2.11-3,3.19-4.45.55-.72,1.14-1.42,1.72-2.12l.87-1,.87-1a84.84,84.84,0,0,1,7.39-7.21A76.46,76.46,0,0,1,52.86,16a72.53,72.53,0,0,1,14.82-5.5,69.08,69.08,0,0,1,11.95-2c.84-.06,1.62-.16,2.37-.19l2.1,0,1.79,0,1.49,0Z"/><path class="cls-1" d="M90.2,163l2.13-.3.55-.07.59-.16,1.34-.34a9.6,9.6,0,0,0,1.51-.51c.54-.21,1.11-.39,1.69-.65a31.12,31.12,0,0,0,7.59-5,47.18,47.18,0,0,0,7.62-9,75.25,75.25,0,0,0,6.47-12.42c.45-1.17,1-2.33,1.37-3.54s.88-2.47,1.24-3.63.77-2.59,1.17-3.91.67-2.58,1-3.89a141.71,141.71,0,0,0,3-16.54c.27-2.86.58-5.73.7-8.64.08-1.45.2-2.9.19-4.36l.08-4.31a168,168,0,0,0-1-17.43,140.91,140.91,0,0,0-3-16.55c-.35-1.32-.66-2.64-1-3.92s-.77-2.56-1.15-3.81l-.12-.42-.16-.48-.33-.94c-.22-.63-.44-1.25-.65-1.87-.44-1.23-.92-2.35-1.37-3.51a76,76,0,0,0-6.48-12.41,46.73,46.73,0,0,0-7.63-9,30.79,30.79,0,0,0-7.58-5c-.59-.26-1.16-.44-1.69-.65a11.31,11.31,0,0,0-1.52-.51l-1.35-.34-.59-.15-.54-.08-2.12-.3,2.15,0a23.26,23.26,0,0,1,6.07,1A29.7,29.7,0,0,1,107,13.57a44.36,44.36,0,0,1,9,8.75,68,68,0,0,1,7.79,12.61c.54,1.2,1.16,2.44,1.67,3.65.25.61.5,1.22.76,1.83l.38.93.19.46.2.53,1.4,3.93c.45,1.33.83,2.7,1.25,4.06s.76,2.77,1.12,4.18c.17.7.35,1.41.52,2.11s.3,1.44.45,2.16c.28,1.43.61,2.88.84,4.34s.45,3,.68,4.43a149.73,149.73,0,0,1,1.22,18l-.1,4.61c0,1.52-.14,3-.23,4.54-.13,3-.54,6-.87,9-.23,1.48-.45,3-.68,4.42s-.56,2.91-.84,4.35c-.15.72-.27,1.44-.44,2.15s-.35,1.42-.52,2.12c-.36,1.41-.68,2.8-1.12,4.19.49,2-.26,2.86-.7,4.18s-.91,2.61-1.37,3.88A25.2,25.2,0,0,1,126,133c-.52,1.24-1.34,3-1.88,4.14-2.27,4.74-3.51,7.58-6.36,11.19s-7.63,7.25-10.69,9.43a29.86,29.86,0,0,1-8.59,4.36,24.39,24.39,0,0,1-6.08,1Z"/><path class="cls-1" d="M90.12,8.32,88,8.62l-.55.08-.59.15-1.34.35A9.6,9.6,0,0,0,84,9.71c-.54.2-1.11.39-1.69.64a31.19,31.19,0,0,0-7.59,5,46.56,46.56,0,0,0-7.62,9A74.85,74.85,0,0,0,60.63,36.8c-.45,1.16-1,2.32-1.37,3.53S58.38,42.8,58,44s-.77,2.59-1.17,3.9-.67,2.58-1,3.89C54.67,56.64,54.6,63,53.16,68.17a9.33,9.33,0,0,0-.36,2.57c0,5.48-.86,9.53-.88,14.93a168.13,168.13,0,0,0,1,17.37,140.71,140.71,0,0,0,3,16.56c.35,1.31.66,2.63,1,3.92s.77,2.55,1.15,3.81l.12.42.16.47.33.95c.22.63.44,1.25.65,1.87.44,1.23.92,2.35,1.37,3.51,1.92,4.58,8.48,6.66,10.87,10.27s.61,8.78,3.24,11.11a31.27,31.27,0,0,0,7.58,5c.59.26,1.16.44,1.69.64a10.05,10.05,0,0,0,1.52.51l1.35.35.59.15.54.08,2.12.29-2.15.05a24.22,24.22,0,0,1-6.07-.95,29.75,29.75,0,0,1-8.61-4.35,44.09,44.09,0,0,1-9-8.75,67.36,67.36,0,0,1-7.78-12.6c-.55-1.2-1.16-2.44-1.68-3.66-.25-.6-.5-1.22-.76-1.83l-.38-.92-.19-.46-.2-.54c-.46-1.29-.93-2.6-1.4-3.93s-.83-2.69-1.25-4.06-.76-2.76-1.12-4.17c-.17-.71-.35-1.41-.52-2.12s-.3-1.43-.45-2.15c-.28-1.44-.61-2.88-.84-4.35s-.45-2.94-.68-4.42a149.62,149.62,0,0,1-1.22-18.09,148.53,148.53,0,0,1,1.2-18.09c.23-1.49.45-3,.68-4.43s.56-2.91.84-4.35c.15-.72.27-1.44.44-2.15s.35-1.41.52-2.12c.36-1.41.68-2.8,1.12-4.19s.82-2.77,1.25-4.09.92-2.57,1.38-3.84,1-2.56,1.55-3.83S56,36.16,56.55,35a67.67,67.67,0,0,1,7.77-12.6,43.84,43.84,0,0,1,9-8.76,29.89,29.89,0,0,1,8.6-4.36,23.93,23.93,0,0,1,6.08-1Z"/><path class="cls-1" d="M92.88,163.08a.17.17,0,0,1,0-.34h.06l1.48-.13h0l1.76-.25,2-.28c.73-.1,1.5-.27,2.31-.41a79.73,79.73,0,0,0,25.3-9.36,82.69,82.69,0,0,0,14.36-10.66,79.61,79.61,0,0,0,6.65-7.12l.82-1,.75-1c.5-.66,1-1.29,1.51-2,1-1.38,2-2.77,2.86-4.23a76.42,76.42,0,0,0,11-29.83c.22-1.8.47-3.61.55-5.43.06-.91.15-1.82.14-2.73l.06-2.67a84.84,84.84,0,0,0-.76-11,78.77,78.77,0,0,0-2.32-10.6,77.1,77.1,0,0,0-8.68-19.21c-.9-1.47-1.89-2.85-2.87-4.23-.49-.69-1-1.34-1.53-2s-1-1.32-1.56-1.95-1.07-1.32-1.57-1.85L143.5,33c-.57-.64-1.14-1.18-1.7-1.73s-1.12-1.11-1.68-1.65c-4.66-4.3-9.12-8.36-14.36-10.65h0a79.13,79.13,0,0,0-13.86-6.31,77.54,77.54,0,0,0-11.45-3c-.81-.14-1.58-.31-2.3-.41l-2-.28-1.77-.25h0l-1.47-.12h-.07a.17.17,0,0,1,0-.34h.07l1.49-.05h0l1.79,0,2.09,0c.75,0,1.54.12,2.37.19a68.68,68.68,0,0,1,12,2,115.7,115.7,0,0,1,19,6.69h0c5.24,3.39,6.45,4.76,11.56,9.12L145,28c.65.58,1.31,1.16,1.88,1.75l1.79,1.78c.69.69,1.21,1.31,1.83,2A70.92,70.92,0,0,1,157.16,42a74.65,74.65,0,0,1,5.59,9.72A70.63,70.63,0,0,1,167,62.43c1.12,3.72,2.5,6.9,3.1,10.78s.39,8.63.43,12.32l-.08,3c0,1-.12,2-.18,3-.11,2-.4,3.91-.65,5.86a82.43,82.43,0,0,1-2.6,11.41c-1.09,3.73-2.31,8.73-4,12.15s-3.79,5.23-5.83,8.29c-1,1.54-2.11,3-3.19,4.44-.55.72-1.14,1.42-1.72,2.12l-.87,1-.87,1a84.84,84.84,0,0,1-7.39,7.21,77.21,77.21,0,0,1-15.71,10.36,73.73,73.73,0,0,1-14.82,5.5,69,69,0,0,1-12,2c-.84.07-1.62.16-2.37.19l-2.1.05-1.79,0-1.49,0Z"/><path class="cls-1" d="M33.06,137.8l1.09-.78c.73-.49,1.77-1.25,3.13-2.15s3.13-1.83,5.16-3l.77-.42.82-.38,1.71-.78c1.18-.52,2.41-1.11,3.73-1.63l4.15-1.52,1.09-.39.55-.2.63-.18,2.26-.64,4.74-1.31c1.64-.4,3.4-.69,5.15-1a100,100,0,0,1,10.86-1.54,55.23,55.23,0,0,1,5.62-.37l5.66-.21,5.65.2c1.84.06,3.66.11,5.56.36a99.71,99.71,0,0,1,10.9,1.52c1.74.35,3.46.62,5.12,1l4.82,1.32,2.31.65.29.08.14,0,.13,0,.07,0,.54.19,1.07.39,4.08,1.49c1.31.52,2.57,1.11,3.75,1.64l1.73.78.82.38.77.42c2,1.12,3.77,2,5.15,2.94s2.43,1.66,3.15,2.16l1.09.77-1.26-.47c-.81-.33-2-.77-3.51-1.39-.73-.33-1.61-.55-2.53-.87s-1.92-.64-3-1-2.21-.64-3.4-1-2.43-.72-3.77-1l-4.23-1-1.11-.26-.56-.13-.5-.09-2.29-.39-4.73-.85c-1.62-.23-3.29-.42-5-.63l-2.56-.33c-.43-.05-.86-.12-1.29-.16l-1.29-.09c-1.73-.11-3.48-.24-5.24-.39s-3.6-.16-5.45-.22l-5.46-.15-5.44.15c-1.8.06-3.61,0-5.39.23l-5.3.39-1.31.09c-.43,0-.85.11-1.27.17l-2.53.32c-1.68.22-3.31.39-4.95.63l-4.83.87-2.32.41-.5.09-.55.13-1.08.25-4.17.95c-1.33.33-2.58.73-3.79,1.06s-2.38.61-3.42,1l-3,1c-.91.32-1.79.53-2.53.87-1.51.63-2.71,1.08-3.52,1.4Z"/><path class="cls-1" d="M119.9,34.51c.19-.17.39-.33.59-.49l.51-.47a2.69,2.69,0,0,0-.6-.45,4.7,4.7,0,0,0-1.51-.54,2.72,2.72,0,0,0-1.44.19A5.08,5.08,0,0,0,114,30.82l-.59-.05a8.83,8.83,0,0,0-8.16,3.8,10.2,10.2,0,0,0-4.82,9.91c.41,2.87,1.46,8.23,3.77,11.85,1.7,2.65,2.69,4.71,2.35,6.57a.65.65,0,0,1-.41-.28.12.12,0,0,0-.13-.07l-.55.09a.24.24,0,0,1-.21-.1c-.1-.16-.16-.27-.24-.38A.27.27,0,0,1,105,62a2,2,0,0,1,.58-1.77l-.43-.76c-1,.33-2.65,1.28-2.82,2.8l-.1-.27c-1.17.23-3.37,1.82-2.69,3.95a5.93,5.93,0,0,0,4.61,3.78,3.67,3.67,0,0,0,1.1,0c.27,0,.59-.1,1-.19a4,4,0,0,0,1.85.16c1.36-.24,4.56-.8,5.72-4.19a5.75,5.75,0,0,0,.77-2.77,7.18,7.18,0,0,0-.08-1.2,7.16,7.16,0,0,0,.2-1.4c0-1.78-.75-3.59-1.66-5.69a25.18,25.18,0,0,1-2.59-9.3,3.29,3.29,0,0,1,.08-.83c.35-1.57,1.76-7,3.44-7.93-.58.79-.7,1.53.34,2.74a3.07,3.07,0,0,0,.25.26L116,38C117.29,36.73,118.58,35.72,119.9,34.51ZM102.88,65c-.13,0-.43,0-.73-.76a.94.94,0,0,1,0-.16l0-.45a3,3,0,0,1,.24-1.14l.15.86a1.64,1.64,0,0,0,.16.45A3.21,3.21,0,0,1,102.88,65Z"/><path class="cls-4" d="M158.82,77.24c-1.24-.56-4.85.56-5.19.89A5.54,5.54,0,0,0,152,81.55c.14,1.31-1.34,2.42-6.77,4.62-2.6,1-3.46-.31-4.08-2.42-1.57-5.52-1.08-5.79-5.43-9.87-2.48-2.31-3.29-3.11-1.82-3.76a1,1,0,0,1,.46-.08,13.59,13.59,0,0,0,8.22-2.36l.38-.28,1.51-1.2.05,0c7.71-6.72,2.63-9.84,3.34-18,0-.48.54-.7.6-1.41l.39-2.07a6.32,6.32,0,0,0-.35-3.14c-3.14-7.89-10.14-9.79-17.81-9.62-7.15.18-10.7.85-16.26,7.56l0,.06a23,23,0,0,0-4,11.25,42.27,42.27,0,0,0,.34,4.62s0,0,0,.07a3.84,3.84,0,0,1,.11.59.64.64,0,0,0,0,.07,12.4,12.4,0,0,0,2.37,6,7.19,7.19,0,0,0,1,1c1.65,1.42,2.75,3.21,5.65,5.12a16.67,16.67,0,0,0,3,1.53.91.91,0,0,1-.13,1.73c-8.42,2-24.36,6.27-25.37,12.27-.94,5.57-9.1,3.19-7.44,14.49.45,3,3.14,2.7,5.57,1.49,5.52-2.7,3.32-3,3.23-6.73-.21-6.74,9.43-11,15.81-12.21a.92.92,0,0,1,1,1.28c-1.35,2.93.69,11.19-4.49,17.74-6.91,8.8-15.91,6.92-13.62,8.18,2.82,1.57,9,10.05,1.56,10.86-5.26.53-4.15-7.53-7.11-9-1.93-.94-7,5.51-7.61,9.64-.54,3.57-.07,5.54.52,6.54.12.21.81,1.24,1,1.29,2.13.49,3.65-3.25,4.51-6.11a.91.91,0,0,1,1.67-.17c3,5.51,7.17,9.64,12.54,2.39,1.35-1.84,6.18-4.17,8.39-2.46,4.37,3.45,17,5.24,22.3,1.06a.91.91,0,0,1,1.36.3c.7,1.33,2,3.8,3.35,6.45,2.06,3.9.18,9.15,2.6,10.59.81.45,5.44.24,8.71-1.56,13.5-7.43,2.91-11.33-2.89-7.79a.9.9,0,0,1-1.37-.83,41.72,41.72,0,0,0-.27-8.85c-.81-3.72-5.52-6.37-3.55-7.18s4.4-2.69,2.56-3.37S134.5,103.32,134,98.47c-.37-3.58,1.54-8.06,2.57-10.16a.91.91,0,0,1,1.48-.23c5.67,6.06,10.33,5.7,15.17-1.85a1,1,0,0,1,.57-.4c1.1-.24,4.45-1.22,5.79-4.23C160.44,79.71,160.21,77.83,158.82,77.24Z"/><path class="cls-4" d="M67.69,105.3c7.81,5.33,6.35,16.28,7.46,25.64.08.8,3.47-2,8.46,1.25,3.09,2-18.85,9.73-18.1,4.36C67.05,126,64,112,52.26,108.1a.45.45,0,0,0-.57.31C49,119,38.93,124.57,28.78,120.72c-4.88-1.82-7.81-7.46-9.1-7.15-.58.18-2.86,4.25-3.34,6.29S12.61,124,13,116.44c.22-4.4,1.77-10.3,3.73-13,4.39-6.13,5,1,7.81,5.19,1.86,2.84,7.12,5,10,3.92,4.26-1.6,7.59-7.13,7.59-8.91s-.82-3.84,2.35-10.51c2.16-4.53,1.61-8.81,2.59-10.08a.44.44,0,0,0-.42-.7c-2.81.46-10.23,1.88-12.84,4.27-3.28,2.93-2.22,1.46-4.17.71-3.55-1.42-2.48,10-9.23,4-5.1-4.62,1.64-9.81,4.84-9.72,1,0,3.77-.67,4.66-2.18,3.9-6.7,17.17-5.1,23.34-7.59a14.13,14.13,0,0,0,3.93-2.61.44.44,0,0,0-.06-.7l-.57-.38-.13,0c-5.38-1.35-5.83-1.33-8.78-4-.35-.31-.55,2.41-1.74,1.28-.07-.07-2.86-1.91-3.38-7-.37-3.63-1.69-9.3.3-15.51A22.66,22.66,0,0,1,60.31,27.63a.45.45,0,0,1,.5.59,1.09,1.09,0,0,0-.07.24.44.44,0,0,0,.72.42,10.52,10.52,0,0,1,7.15-3.19c.39,0,.39,1.17.13,1.45a1.82,1.82,0,0,0-.41,1.52c.07.45.52.21.86-.08.91-.8,2.73-.27,4.63-.54.73-.11.54.5.26.77h0c-.27.26-.47.57-.09.61,6.24.57.94,5.71,11,4.85,3.07-.26,2.54,4.85-2.67,7.89-.14.08-.28.15-.32.3-1.67,5.62,1.2,12-.24,16.94-2.35,8-9.53,9.53-16.1,9.8a.44.44,0,0,0-.19.83c6.19,3.43,3,8.51,9.67,14.93a38.27,38.27,0,0,0,9.42,6.26c2.48,1.24,1.42,3.24,2.79,2,9.9-8.88,12.16,10.38,3.46,6.43-1.42-.66-2.88-1.46-4.08-1.06-6.66,2.26-5.8,2.43-13.45-2.23-1.79-1.09-4.88-4-5.28-5.85-1-5-4.13,9.67-.31,14.78Z"/><path class="cls-4" d="M274.65,19.83a8.32,8.32,0,0,0-.07,2.6c.11.13.44,1.23.56,1.52a7.15,7.15,0,0,0,1.69,2.46,8,8,0,0,0,1.1.9l.11.06c.14.05.11,0,.19.12a6.61,6.61,0,0,1,.71.24,6.85,6.85,0,0,0,.81.2,12.33,12.33,0,0,0,1.81.09c.08-.07.1-.05.24-.07a1.5,1.5,0,0,0,.78-.37,1.55,1.55,0,0,0,.5-.69c.54-1.23-.31-1.14-.55-1.51-.08-.12-.26-.6-.35-.79a4.86,4.86,0,0,0-1-1.35c-.23-.22-.34-.37-.6-.59a3.47,3.47,0,0,1-.3-.27c-.11-.11-.2-.16-.31-.27a14.9,14.9,0,0,0-2.68-2,4,4,0,0,0-1-.14c-.23-.12-.23-.4-.76-.41s-.61.21-.87.3Z"/><path class="cls-4" d="M275.39,17c.18.1.08.19.2.46s.17.22.33.32.9,1.1,1.82.51c.71-.44.35-.35.77-.6A4.09,4.09,0,0,0,280,16.52c1.07-1.3.73-1.43,1.57-2.5a4.86,4.86,0,0,1,.57-.8,2.58,2.58,0,0,0,.44-.22c.13-.12.2-.26.32-.39.6-.63.73-1.2,1.61-.7.36.21,1.21.94,1.86.16a1.19,1.19,0,0,0,.34-1l0-.44a9.82,9.82,0,0,0-4.08,0,11.26,11.26,0,0,0-5,2.89l-.26.3a10.5,10.5,0,0,0-1.6,2.37c-.15.29-.22.55-.34.82Z"/><path class="cls-4" d="M287.17,30.69a8.67,8.67,0,0,1-4.46-.84A27.74,27.74,0,0,1,280,28.51a5.19,5.19,0,0,0-.9-.47c-.14,0,0,0-.13-.07l-.08-.08c.15,0,.13,0,.23.08a4.32,4.32,0,0,0,2.34,0v0a10.87,10.87,0,0,1-1.79-.1,5,5,0,0,1-.81-.19,4.74,4.74,0,0,0-.7-.23c-.05,0-.17.13-.16,0l-.08,0,0,0s0,0,0,0a7.11,7.11,0,0,1-1.82-1.51,5.47,5.47,0,0,1-.73-.93c-.1-.18-.48-1-.55-1.1a9.36,9.36,0,0,0,1.67,3.44,8.72,8.72,0,0,0,2.42,2.63,10.57,10.57,0,0,0,3.86,1.25,9.36,9.36,0,0,0,4.43-.41Z"/><path class="cls-4" d="M274.7,17.23c.09-.08.63-1.35.77-1.59a10.81,10.81,0,0,1,6.65-5.4c1.78-.57,2.47-.23,4.3-.2-.2-.52-1.22-.76-1.73-.84-2.83-.43-5.43,1.08-7.31,2.92a9.31,9.31,0,0,0-1.15,1.44,12.54,12.54,0,0,0-1.53,3.67Z"/><path class="cls-4" d="M290.88,12.51h0c-.09-.14-.06-.08-.17-.18a.48.48,0,0,0-.23-.14.47.47,0,0,0,.15.17,1.19,1.19,0,0,1,.22.16Z"/><path class="cls-4" d="M288,11.78c-.17.28-.43.53-.63.8-.44.61-.37.9-1,1.31a1.76,1.76,0,0,0-.4.36c-.62.65-.12.26-.92.59A6.34,6.34,0,0,0,283,16.48a5.15,5.15,0,0,0-.48.27c-.17.14-.17.25-.32.45s-.24.17-.36.4a3.77,3.77,0,0,0,.32,2.43c.19.34.37.6.56,1s.38.47.79.72c1.16.69,1.25.21,1.75-.65.15-.25.22-.18.41-.34.46-.37.74-1.12,1-1.28a2.64,2.64,0,0,0,1,.58,16.27,16.27,0,0,0-.46,1.8c-.1.72,0,1.45,0,2.18-.91-.1-1.24-.34-1.94.86-.11.19-.41.42-.68.78a2.62,2.62,0,0,0-.45,1.06c-.44,2.14,1.24,3.06,3.05,2.15a10,10,0,0,0,1.36-.85c.62-.55.57-.66,1.38-.89.44-.13.58-.39,1.07-.43a2.21,2.21,0,0,0,1.91-1.08,5.75,5.75,0,0,0,.58-.94,5.3,5.3,0,0,1,.44-1.07,7.07,7.07,0,0,0,.51-3.32,13,13,0,0,0-1.83-5.73,9,9,0,0,0-1.71-2,1.19,1.19,0,0,0-.22-.16.47.47,0,0,1-.15-.17l-.67-.42a3.52,3.52,0,0,0-.73-.34c-.18.06-.37.09-.55.16s-.35.14-.54.2Z"/><path class="cls-1" d="M428.82,32.52h0a9.41,9.41,0,0,1,9.41,9.41V87q0,9.14,2.16,13.35,3.36,7.45,14.64,7.46t14.57-7.46q2.16-4.21,2.16-13.35V41.93a9.41,9.41,0,0,1,9.42-9.41h0a9.41,9.41,0,0,1,9.41,9.41V87q0,14.14-4.38,22Q478,123.52,455,123.52t-31.25-14.45q-4.38-7.89-4.38-22V41.93A9.41,9.41,0,0,1,428.82,32.52Z"/><path class="cls-1" d="M564.65,83.34q-7.9,6.6-22.56,6.59H532.7a9.34,9.34,0,0,0-9.34,9.34v13.67a9.34,9.34,0,0,1-9.34,9.34h0a9.34,9.34,0,0,1-9.33-9.34V41.67A9.34,9.34,0,0,1,514,32.33h29.29q13.35,0,21.3,7t7.94,21.54Q572.55,76.75,564.65,83.34ZM550.3,50.94q-3.57-3-10-3h-7.6a9.34,9.34,0,0,0-9.34,9.34V65.1a9.34,9.34,0,0,0,9.34,9.34h7.6q6.44,0,10-3.24T553.87,61Q553.87,53.93,550.3,50.94Z"/><path class="cls-1" d="M248.91,46.2Q234,66.75,226.83,79.86l-2.36,4.6-.24.36.12,1.18a5.91,5.91,0,0,1,1.18.12c.87.08,2.05.19,3.55.35,1.33.16,2.2.24,2.59.24,3,.55,6,1.24,9,2.06s5.45,1.54,7.26,2.13,4.49,1.53,8,2.83,6.1,2.19,7.67,2.66a3.18,3.18,0,0,1,1.72,1.54,2.76,2.76,0,0,1,.11,2.24,2.85,2.85,0,0,1-1.47,1.71,3,3,0,0,1-2.25.18L254,99.22l-7.79-2.71c-1.73-.63-4-1.32-6.91-2.07s-5.73-1.36-8.56-1.83a12.35,12.35,0,0,0-2.13-.23L224.94,92l-.35-.12q.82,16.77,1.06,24.45a3.19,3.19,0,0,1-.82,2.12,2.61,2.61,0,0,1-2,1,3.16,3.16,0,0,1-2.13-.83,2.57,2.57,0,0,1-.94-2q-.24-7.44-1.18-26.09a4.9,4.9,0,0,1-1.18-1.07,2.56,2.56,0,0,1-.6-2,2.16,2.16,0,0,1,.12-.71,5.1,5.1,0,0,0,.24-.59,6.34,6.34,0,0,1,.47-1.18l.71-1.42q-.36-7.8-.59-13.7-.12-4.36.24-20.19a153.29,153.29,0,0,0-.59-19.6,3,3,0,0,1,.65-2.19A2.74,2.74,0,0,1,220,26.72a3,3,0,0,1,2.19.65,2.71,2.71,0,0,1,1.12,1.95,139.31,139.31,0,0,1,.59,20.43q-.36,15.59-.24,19.84l.12,3.66q7-12,20.43-30.59a2.79,2.79,0,0,1,1.89-1.12,2.9,2.9,0,0,1,2.18.53A2.75,2.75,0,0,1,249.45,44,3.09,3.09,0,0,1,248.91,46.2Z"/><path class="cls-1" d="M287.64,37.82q2.83,30.71,2.84,82.07a3,3,0,0,1-5.91,0q0-51.48-2.83-81.6a2.92,2.92,0,0,1,2.66-3.18,2.91,2.91,0,0,1,3.24,2.71Z"/><path class="cls-1" d="M341.6,26.6q.36,4,.48,8.21c.08,2.8.08,6.18,0,10.16s-.12,6.59-.12,7.85c0,7.32-.22,27.41-.65,42.09s-.65,16.59-.65,23.92a2.8,2.8,0,0,1-.89,2.06,2.95,2.95,0,0,1-5-2.06c0-4.88.07-1.27.23-7.33a24.4,24.4,0,0,1-16.29.59,22.83,22.83,0,0,1-9.74-5.26,17.87,17.87,0,0,1-5.14-7.91,22.13,22.13,0,0,1-.83-8.79,21.21,21.21,0,0,1,2.6-8.27,17.9,17.9,0,0,1,5.85-6.38,15.32,15.32,0,0,1,8.32-2.59q8-.24,16.06,7.08c.16-6.77.24-21.88.24-27.15,0-1.5,0-4.17.11-8s.1-7.13.06-9.8a69.12,69.12,0,0,0-.53-7.68,3,3,0,0,1,.65-2.24,2.79,2.79,0,0,1,2-1.06,2.89,2.89,0,0,1,2.18.64A2.78,2.78,0,0,1,341.6,26.6Zm-6.25,61.28q-8.14-9.33-15.47-9.09-5.91.12-9.21,6a15.17,15.17,0,0,0-1.89,6,14.48,14.48,0,0,0,.65,6.26,13.62,13.62,0,0,0,3.78,5.61,16.61,16.61,0,0,0,7.14,3.78q8.26,2.37,14.41-1.42a.52.52,0,0,0,.35-.11q.12-3.19.3-9t.17-7.79Z"/><path class="cls-1" d="M383.41,50.57q-2-6.14-5.85-9a11.58,11.58,0,0,0-7.91-2.6,11.26,11.26,0,0,0-7.38,3.72Q359,46.1,358,52.7q-1.31,7.9.47,12.28a39.11,39.11,0,0,0,3.13,5.9q2,3.08,5.43,7.8c2.32,3.15,4,5.43,4.9,6.85a64.75,64.75,0,0,1,7,12.75,24,24,0,0,1,1.42,12.4A13.9,13.9,0,0,1,373,121.07a10.7,10.7,0,0,1-15-2.95q-3.78-5-5.2-13.82a3.14,3.14,0,0,1,.59-2.18,2.71,2.71,0,0,1,1.89-1.18,2.93,2.93,0,0,1,2.19.53,3,3,0,0,1,1.24,1.89q1.17,7.44,4,11.21a5.47,5.47,0,0,0,2.95,2.25,6.32,6.32,0,0,0,4.49-.95,8.17,8.17,0,0,0,4.25-6.14,18.89,18.89,0,0,0-1.24-9.74,59,59,0,0,0-6.08-11.16c-.71-1-2.28-3.19-4.72-6.49s-4.39-6.12-5.85-8.44a40.91,40.91,0,0,1-3.48-6.79q-2.37-5.79-.95-15.36,1.31-8.25,6-13.28A16.57,16.57,0,0,1,369.24,33,16.83,16.83,0,0,1,381,36.7a24.11,24.11,0,0,1,8.09,12,3,3,0,0,1-.17,2.25,2.89,2.89,0,0,1-1.72,1.47,2.77,2.77,0,0,1-2.24-.11A3.13,3.13,0,0,1,383.41,50.57Z"/><path class="cls-1" d="M282.84,139.73h3.08a.59.59,0,0,1,.6.59V155.9a.59.59,0,0,0,.59.6h9a.6.6,0,0,1,.6.6v2.47a.6.6,0,0,1-.6.6H282.84a.6.6,0,0,1-.6-.6V140.32A.59.59,0,0,1,282.84,139.73Z"/><path class="cls-1" d="M314.12,143.35H304.5a.59.59,0,0,0-.6.59v3.15a.6.6,0,0,0,.6.6h8.73a.6.6,0,0,1,.6.6v2.35a.6.6,0,0,1-.6.6H304.5a.6.6,0,0,0-.6.6v4.06a.6.6,0,0,0,.6.6h10.12a.6.6,0,0,1,.6.6v2.47a.6.6,0,0,1-.6.6h-14.3a.6.6,0,0,1-.6-.6V140.32a.59.59,0,0,1,.6-.59h13.8a.59.59,0,0,1,.6.59v2.43A.6.6,0,0,1,314.12,143.35Z"/><path class="cls-1" d="M324.82,139.73h4a.6.6,0,0,1,.56.39l6.81,19.25a.6.6,0,0,1-.56.8h-3.35a.59.59,0,0,1-.57-.41l-1.08-3.37a.6.6,0,0,0-.57-.42h-6.67a.6.6,0,0,0-.56.41l-1.12,3.38a.59.59,0,0,1-.57.41H318a.6.6,0,0,1-.57-.8l6.87-19.25A.6.6,0,0,1,324.82,139.73Zm.12,12.72h3.59a.6.6,0,0,0,.57-.79l-1.77-5.51a.6.6,0,0,0-1.14,0l-1.82,5.51A.6.6,0,0,0,324.94,152.45Z"/><path class="cls-1" d="M352.17,140.25a5.09,5.09,0,0,1,1.91,1.43,6.14,6.14,0,0,1,1,1.72,5.61,5.61,0,0,1,.38,2.15,6.15,6.15,0,0,1-.73,2.87,4.11,4.11,0,0,1-2.43,2,3.84,3.84,0,0,1,2,1.61,6.67,6.67,0,0,1,.59,3.2v1.37a9.85,9.85,0,0,0,.12,1.91,1.7,1.7,0,0,0,.78,1.16v.51h-4.71c-.13-.45-.22-.81-.28-1.09a10.3,10.3,0,0,1-.18-1.76l0-1.9a3.88,3.88,0,0,0-.67-2.61,3.45,3.45,0,0,0-2.44-.65h-3.57a.59.59,0,0,0-.6.59v6.82a.6.6,0,0,1-.6.6h-3a.6.6,0,0,1-.6-.6V140.32a.59.59,0,0,1,.6-.59h9.18A8.84,8.84,0,0,1,352.17,140.25Zm-8.83,3.63v4.29a.6.6,0,0,0,.6.6h4a4.89,4.89,0,0,0,2.05-.33,2.31,2.31,0,0,0,1.21-2.31,2.57,2.57,0,0,0-1.17-2.49,4.24,4.24,0,0,0-2-.36h-4.12A.6.6,0,0,0,343.34,143.88Z"/><path class="cls-1" d="M360.11,139.73h3.54a.6.6,0,0,1,.52.3L371,152a.6.6,0,0,0,1.12-.3v-11.4a.59.59,0,0,1,.6-.59h2.78a.59.59,0,0,1,.6.59v19.25a.6.6,0,0,1-.6.6h-3.32a.58.58,0,0,1-.52-.3l-7-12.26a.59.59,0,0,0-1.11.3v11.66a.6.6,0,0,1-.6.6h-2.79a.6.6,0,0,1-.6-.6V140.32A.59.59,0,0,1,360.11,139.73Z"/><path class="cls-1" d="M395.3,145.05h3a.61.61,0,0,1,.59.48l1.62,7.67a.6.6,0,0,0,1.17,0l1.67-7.69a.6.6,0,0,1,.58-.47h2.84a.61.61,0,0,1,.58.77l-4,13.92a.59.59,0,0,1-.58.43h-3.13a.59.59,0,0,1-.58-.47l-1.69-7.84a.6.6,0,0,0-1.17,0l-1.71,7.84a.59.59,0,0,1-.59.47h-3.17a.59.59,0,0,1-.57-.43l-3.91-13.93a.6.6,0,0,1,.58-.76h3a.6.6,0,0,1,.58.47L392,153.1a.6.6,0,0,0,1.17,0l1.52-7.56A.6.6,0,0,1,395.3,145.05Z"/><path class="cls-1" d="M413.24,143.25h-2.81a.6.6,0,0,1-.6-.6V140.2a.6.6,0,0,1,.6-.6h2.81a.6.6,0,0,1,.6.6v2.45A.6.6,0,0,1,413.24,143.25Zm-2.81,1.8h2.81a.6.6,0,0,1,.6.6v13.92a.6.6,0,0,1-.6.6h-2.81a.6.6,0,0,1-.6-.6V145.65A.6.6,0,0,1,410.43,145.05Z"/><path class="cls-1" d="M416.12,148v-2.82h2.1v-3.62a.6.6,0,0,1,.6-.6h2.72a.6.6,0,0,1,.6.6v3.62h2.45V148h-2.45v8a1.88,1.88,0,0,0,.23,1.16,2.64,2.64,0,0,0,1.45.23h.38l.39,0v2.95l-1.87.07c-1.87.07-3.15-.26-3.83-1a2.9,2.9,0,0,1-.67-2.09V148Z"/><path class="cls-1" d="M438,145.14a4.45,4.45,0,0,1,1.87,1.48,4,4,0,0,1,.76,1.74,22,22,0,0,1,.14,2.93v8.28a.6.6,0,0,1-.6.6h-2.84a.6.6,0,0,1-.6-.6V151a4.16,4.16,0,0,0-.41-2,2.08,2.08,0,0,0-2-1.05,2.79,2.79,0,0,0-2.36,1.05,4.79,4.79,0,0,0-.81,3v7.59a.6.6,0,0,1-.6.6h-2.75a.6.6,0,0,1-.6-.6V140.39a.6.6,0,0,1,.6-.6h2.75a.6.6,0,0,1,.6.6V147a4.85,4.85,0,0,1,2-1.84,5.53,5.53,0,0,1,2.37-.52A6.32,6.32,0,0,1,438,145.14Z"/><path class="cls-1" d="M453.3,139.75h13.38a.6.6,0,0,1,.6.6v2.4a.6.6,0,0,1-.6.6h-9.14a.59.59,0,0,0-.6.59v3.51a.6.6,0,0,0,.6.6h7.86a.6.6,0,0,1,.6.6V151a.6.6,0,0,1-.6.6h-7.86a.6.6,0,0,0-.6.6v7.37a.59.59,0,0,1-.6.6h-3a.6.6,0,0,1-.6-.6V140.35A.6.6,0,0,1,453.3,139.75Z"/><path class="cls-1" d="M470.65,139.73h3.15a.59.59,0,0,1,.6.59v12a7.16,7.16,0,0,0,.49,3.08c.52,1.15,1.64,1.72,3.38,1.72s2.84-.57,3.36-1.72a7.16,7.16,0,0,0,.49-3.08v-12a.59.59,0,0,1,.6-.59h3.15a.59.59,0,0,1,.6.59v12a10.45,10.45,0,0,1-1,5.08c-1.25,2.22-3.65,3.33-7.18,3.33s-5.94-1.11-7.21-3.33a10.58,10.58,0,0,1-1-5.08v-12A.59.59,0,0,1,470.65,139.73Z"/><path class="cls-1" d="M491.1,139.73h3.53a.58.58,0,0,1,.52.3L502,152a.6.6,0,0,0,1.12-.3v-11.4a.59.59,0,0,1,.6-.59h2.78a.59.59,0,0,1,.6.59v19.25a.6.6,0,0,1-.6.6h-3.32a.58.58,0,0,1-.52-.3l-7-12.26a.6.6,0,0,0-1.12.3v11.66a.59.59,0,0,1-.6.6H491.1a.6.6,0,0,1-.6-.6V140.32A.59.59,0,0,1,491.1,139.73Z"/></g></g></svg>